<svg xmlns="http://www.w3.org/2000/svg" xmlns:xlink="http://www.w3.org/1999/xlink" width="120" zoomAndPan="magnify" viewBox="0 0 90 30.000001" height="40" preserveAspectRatio="xMidYMid meet" version="1.0"><defs><clipPath id="cab02ad9d9"><path d="M 9 1.453125 L 34.839844 1.453125 L 34.839844 27.582031 L 9 27.582031 Z M 9 1.453125 " clip-rule="nonzero"/></clipPath><clipPath id="b391c05ce3"><path d="M 4.355469 2 L 34.839844 2 L 34.839844 27 L 4.355469 27 Z M 4.355469 2 " clip-rule="nonzero"/></clipPath><clipPath id="fe0aa011a9"><path d="M 34.675781 3.667969 L 84.753906 3.667969 L 84.753906 25.441406 L 34.675781 25.441406 Z M 34.675781 3.667969 " clip-rule="nonzero"/></clipPath></defs><g clip-path="url(#cab02ad9d9)"><path fill="#fc7c00" d="M 9.742188 12.882812 C 8.734375 13.203125 9.875 10.546875 10.015625 10.15625 C 10.316406 9.457031 10.6875 8.792969 11.089844 8.15625 C 11.878906 6.839844 12.816406 5.644531 13.945312 4.660156 C 14.90625 3.882812 15.925781 3.144531 17.039062 2.652344 C 17.726562 2.417969 18.363281 2.027344 19.066406 1.84375 C 20.335938 1.523438 21.652344 1.460938 22.945312 1.640625 C 23.949219 1.789062 24.941406 2.050781 25.949219 2.183594 C 26.484375 2.269531 27.027344 2.378906 27.527344 2.613281 C 28.890625 3.183594 30.011719 4.304688 30.742188 5.675781 C 31.152344 6.3125 31.484375 6.992188 31.703125 7.734375 C 31.839844 8.097656 31.996094 8.449219 32.078125 8.832031 C 32.488281 9.886719 32.722656 10.765625 32.359375 11.894531 C 31.886719 13.464844 30.175781 13.910156 28.886719 14.34375 C 27.582031 14.679688 26.261719 14.917969 24.925781 14.972656 C 23.875 15.007812 22.828125 14.921875 21.78125 14.914062 C 20.085938 14.894531 18.421875 15.375 16.722656 15.304688 C 15.453125 15.324219 14.175781 15.28125 12.960938 14.828125 C 12.238281 14.574219 11.453125 14.4375 10.828125 13.933594 C 10.445312 13.613281 9.957031 13.386719 9.742188 12.882812 Z M 34.117188 22.078125 C 34.050781 21.398438 33.613281 20.792969 33.003906 20.617188 C 32.265625 20.367188 31.488281 20.65625 30.726562 20.722656 C 28.324219 20.886719 25.90625 20.894531 23.539062 21.425781 C 21.402344 21.75 19.277344 22.257812 17.113281 22.304688 C 15.839844 22.339844 14.582031 22.035156 13.308594 22.015625 C 12.582031 21.96875 11.867188 22.128906 11.144531 22.175781 C 10.917969 22.199219 10.695312 22.1875 10.476562 22.121094 C 10.335938 22.074219 10.1875 22.03125 10.058594 22.144531 C 9.714844 22.421875 9.5 23.222656 9.925781 23.515625 C 10.246094 24.011719 10.617188 24.488281 10.96875 24.96875 C 11.273438 25.351562 11.667969 25.628906 12.035156 25.929688 C 13.269531 26.785156 14.753906 27.171875 16.191406 27.382812 C 18.273438 27.570312 20.363281 27.292969 22.445312 27.234375 C 24.226562 27.175781 25.9375 26.566406 27.667969 26.175781 C 28.691406 25.9375 29.75 25.929688 30.769531 25.648438 C 31.617188 25.355469 32.507812 24.996094 33.15625 24.3125 C 33.703125 23.730469 34.253906 22.960938 34.117188 22.078125 Z M 34.117188 22.078125 " fill-opacity="1" fill-rule="nonzero"/></g><g clip-path="url(#b391c05ce3)"><path fill="#0e1111" d="M 34.671875 15.054688 C 34.492188 14.570312 34.027344 14.3125 33.6875 13.953125 C 34.242188 13.730469 34.585938 12.847656 33.972656 12.496094 C 33.601562 12.308594 33.179688 12.257812 32.777344 12.171875 C 32.621094 12.148438 32.464844 12.109375 32.308594 12.070312 C 32.773438 10.550781 31.519531 8.660156 30.050781 6.4375 C 28.785156 4.648438 27.640625 3.546875 25.503906 2.859375 C 24.515625 2.535156 23.464844 2.539062 22.449219 2.375 C 18.847656 1.671875 16.339844 2.167969 13.195312 3.996094 C 12.558594 4.28125 12.003906 4.695312 11.433594 5.085938 C 10.75 5.492188 10.207031 6.0625 9.734375 6.691406 C 9.3125 7.234375 8.839844 7.738281 8.46875 8.316406 C 7.789062 9.457031 7.316406 10.785156 7.339844 12.121094 C 7.34375 12.691406 7.636719 13.207031 8.121094 13.5 C 8.097656 13.550781 8.078125 13.601562 8.0625 13.660156 C 7.769531 13.515625 7.351562 13.480469 7.109375 13.515625 C 6.460938 13.625 5.710938 13.8125 5.332031 14.390625 C 4.890625 15.136719 5.242188 15.578125 5.984375 15.835938 C 5.523438 16.132812 5.085938 16.488281 4.796875 16.964844 C 4.355469 17.566406 4.441406 18.441406 5.324219 18.476562 C 6.066406 18.488281 6.769531 18.253906 7.484375 18.085938 C 7.273438 18.53125 7.105469 18.996094 6.902344 19.445312 C 6.714844 19.925781 6.199219 20.683594 6.746094 21.085938 C 6.917969 21.160156 7.101562 21.109375 7.277344 21.082031 C 7.535156 21.050781 7.796875 21.042969 8.0625 21.03125 C 6.910156 22.550781 7.929688 24.4375 9.441406 25.324219 C 10.347656 25.859375 11.347656 26.171875 12.386719 26.328125 C 14.007812 26.601562 15.621094 26.75 17.269531 26.785156 C 19.199219 26.84375 21.117188 26.636719 23.023438 26.355469 C 24.441406 26.199219 25.875 26.207031 27.289062 25.976562 C 28.761719 25.753906 30.621094 24.960938 31.710938 23.949219 C 32.972656 22.835938 33.363281 20.96875 32.191406 19.648438 C 32.03125 19.515625 31.753906 19.230469 31.472656 19.046875 C 31.472656 18.992188 31.472656 18.933594 31.472656 18.878906 C 32.453125 18.707031 32.96875 17.828125 32.742188 16.859375 C 33.210938 16.84375 33.695312 16.738281 34.09375 16.480469 C 34.492188 16.164062 34.839844 15.574219 34.671875 15.054688 Z M 19.027344 15.664062 C 19.042969 15.664062 19.0625 15.664062 19.078125 15.664062 C 19.0625 15.675781 19.050781 15.691406 19.035156 15.707031 C 19.03125 15.691406 19.027344 15.675781 19.027344 15.664062 Z M 14.964844 15.644531 C 14.96875 15.511719 14.960938 15.402344 14.945312 15.316406 C 15.046875 15.332031 15.152344 15.34375 15.253906 15.355469 C 15.144531 15.476562 15.042969 15.582031 14.964844 15.644531 Z M 12.828125 15.539062 C 12.726562 15.410156 12.734375 15.226562 12.703125 15.0625 C 12.878906 15.082031 13.050781 15.101562 13.222656 15.117188 C 13.265625 15.125 13.308594 15.128906 13.351562 15.132812 C 13.183594 15.253906 13.003906 15.417969 12.828125 15.539062 Z M 11.613281 15.140625 C 11.625 15.0625 11.628906 14.988281 11.628906 14.921875 C 11.6875 14.929688 11.746094 14.9375 11.804688 14.949219 C 11.730469 15.015625 11.664062 15.085938 11.613281 15.140625 Z M 8.90625 14.136719 C 8.902344 14.09375 8.898438 14.054688 8.894531 14.011719 C 8.914062 14.023438 8.929688 14.03125 8.949219 14.042969 C 8.933594 14.074219 8.921875 14.105469 8.90625 14.136719 Z M 13.472656 15.921875 C 13.488281 15.992188 13.507812 16.058594 13.53125 16.121094 C 13.460938 16.109375 13.390625 16.101562 13.320312 16.089844 C 13.375 16.035156 13.425781 15.980469 13.472656 15.921875 Z M 14.046875 15.207031 C 14.15625 15.222656 14.265625 15.234375 14.375 15.246094 C 14.296875 15.328125 14.21875 15.429688 14.148438 15.546875 C 14.121094 15.40625 14.085938 15.296875 14.046875 15.207031 Z M 14.328125 16.195312 C 14.332031 16.203125 14.332031 16.210938 14.332031 16.21875 C 14.324219 16.21875 14.316406 16.21875 14.308594 16.21875 C 14.316406 16.210938 14.324219 16.203125 14.328125 16.195312 Z M 15.445312 16.164062 C 15.4375 16.230469 15.433594 16.296875 15.4375 16.359375 C 15.371094 16.351562 15.300781 16.339844 15.234375 16.332031 C 15.3125 16.273438 15.386719 16.214844 15.445312 16.164062 Z M 21.121094 15.539062 C 21.199219 15.53125 21.277344 15.523438 21.355469 15.515625 C 21.335938 15.554688 21.320312 15.589844 21.308594 15.625 C 21.269531 15.753906 21.242188 15.9375 21.238281 16.132812 C 21.171875 16.136719 21.109375 16.140625 21.046875 16.144531 C 21.136719 15.96875 21.164062 15.730469 21.121094 15.539062 Z M 24.734375 15.527344 C 24.699219 15.382812 24.664062 15.261719 24.625 15.160156 C 24.777344 15.144531 24.929688 15.132812 25.082031 15.125 C 24.949219 15.238281 24.851562 15.398438 24.734375 15.527344 Z M 23.320312 15.484375 C 23.304688 15.417969 23.285156 15.355469 23.261719 15.296875 C 23.332031 15.289062 23.402344 15.28125 23.46875 15.273438 C 23.421875 15.339844 23.371094 15.410156 23.320312 15.484375 Z M 23.863281 16.015625 C 23.871094 16.03125 23.875 16.050781 23.878906 16.070312 C 23.863281 16.070312 23.847656 16.070312 23.832031 16.070312 C 23.84375 16.050781 23.855469 16.03125 23.863281 16.015625 Z M 25.554688 15.683594 C 25.65625 15.53125 25.679688 15.242188 25.582031 15.085938 C 25.800781 15.070312 26.019531 15.050781 26.238281 15.03125 C 26.253906 15.082031 26.277344 15.128906 26.308594 15.175781 C 26.382812 15.398438 26.429688 15.632812 26.480469 15.863281 C 26.242188 15.914062 26.003906 15.953125 25.761719 15.976562 C 25.613281 15.992188 25.464844 16.007812 25.320312 16.019531 C 25.410156 15.90625 25.488281 15.792969 25.554688 15.683594 Z M 28.203125 15.21875 C 28.152344 15.066406 28.085938 14.917969 28.042969 14.761719 C 28.277344 14.707031 28.507812 14.644531 28.734375 14.566406 C 28.769531 14.558594 28.804688 14.546875 28.839844 14.535156 C 28.835938 14.742188 28.882812 14.976562 29.007812 15.234375 C 28.753906 15.304688 28.5 15.375 28.246094 15.4375 C 28.25 15.359375 28.238281 15.285156 28.203125 15.21875 Z M 9.890625 7.808594 C 11.039062 6.304688 12.519531 5.019531 14.292969 4.3125 C 15.371094 3.917969 16.507812 3.769531 17.644531 3.667969 C 18.707031 3.542969 19.761719 3.375 20.835938 3.382812 C 21.601562 3.359375 22.34375 3.578125 23.074219 3.785156 C 24.355469 4.085938 25.578125 4.574219 26.816406 5.015625 C 27.863281 5.371094 28.765625 6.046875 29.515625 6.84375 C 30.304688 7.828125 30.824219 9.003906 31.242188 10.183594 C 31.859375 11.636719 31.703125 11.890625 30.324219 12.585938 C 28.917969 13.359375 27.394531 13.867188 25.835938 14.238281 C 23.554688 14.835938 21.1875 14.203125 18.875 14.167969 C 16.929688 14.136719 14.964844 14.3125 13.066406 13.796875 C 11.375 13.476562 9.640625 13.128906 8.160156 12.226562 C 8 10.589844 8.84375 9.019531 9.890625 7.808594 Z M 8.269531 18.167969 C 8.300781 18.09375 8.339844 18.015625 8.367188 17.933594 C 8.371094 17.933594 8.378906 17.933594 8.382812 17.933594 C 10.066406 17.675781 9.75 19.800781 11.6875 19.289062 C 12.113281 19.203125 12.449219 18.910156 12.835938 18.734375 C 13.71875 18.46875 14.351562 19.019531 15.128906 19.296875 C 15.542969 19.429688 15.988281 19.417969 16.417969 19.390625 C 16.378906 19.398438 16.339844 19.40625 16.300781 19.414062 C 15.984375 19.472656 15.664062 19.511719 15.347656 19.535156 C 15.128906 19.398438 14.882812 19.457031 14.640625 19.578125 C 14.140625 19.601562 13.640625 19.613281 13.140625 19.65625 C 12.683594 19.691406 12.226562 19.71875 11.769531 19.742188 C 11.660156 19.707031 11.550781 19.714844 11.449219 19.757812 C 10.148438 19.820312 8.84375 19.855469 7.542969 19.917969 C 7.808594 19.34375 8.023438 18.75 8.269531 18.167969 Z M 30.15625 19.207031 C 30.011719 19.261719 29.867188 19.3125 29.722656 19.363281 C 29.726562 19.359375 29.726562 19.359375 29.726562 19.355469 C 29.816406 19.195312 29.792969 19 29.738281 18.824219 C 29.875 18.851562 30.011719 18.871094 30.144531 18.890625 C 30.128906 19.003906 30.132812 19.113281 30.15625 19.207031 Z M 18.808594 20.25 C 18.855469 20.246094 18.90625 20.238281 18.953125 20.230469 C 18.914062 20.285156 18.878906 20.335938 18.847656 20.382812 C 18.835938 20.335938 18.820312 20.292969 18.808594 20.25 Z M 19.96875 20.039062 C 19.976562 20.035156 19.980469 20.035156 19.984375 20.035156 C 19.980469 20.039062 19.976562 20.042969 19.976562 20.046875 C 19.972656 20.042969 19.972656 20.042969 19.96875 20.039062 Z M 21.609375 19.796875 C 21.597656 19.753906 21.582031 19.714844 21.570312 19.675781 C 21.625 19.667969 21.679688 19.65625 21.734375 19.644531 C 21.6875 19.699219 21.644531 19.75 21.609375 19.796875 Z M 22.953125 19.457031 C 22.96875 19.457031 22.980469 19.457031 22.992188 19.453125 C 22.984375 19.46875 22.976562 19.484375 22.96875 19.5 C 22.964844 19.484375 22.960938 19.472656 22.953125 19.457031 Z M 17.507812 20.367188 C 17.566406 20.363281 17.625 20.363281 17.683594 20.359375 C 17.652344 20.402344 17.625 20.445312 17.597656 20.492188 C 17.5625 20.453125 17.535156 20.414062 17.507812 20.367188 Z M 11.082031 20.832031 C 11.109375 20.847656 11.140625 20.859375 11.179688 20.863281 C 11.046875 20.863281 10.90625 20.867188 10.765625 20.871094 C 10.871094 20.859375 10.976562 20.847656 11.082031 20.832031 Z M 12.976562 21.003906 C 12.875 21 12.777344 20.996094 12.679688 20.992188 C 12.777344 20.929688 12.875 20.917969 12.976562 21.003906 Z M 14.304688 20.851562 C 14.453125 20.78125 14.644531 20.542969 14.804688 20.613281 C 14.878906 20.742188 14.953125 20.855469 15.027344 20.953125 C 14.738281 20.949219 14.449219 20.953125 14.160156 20.960938 C 14.207031 20.925781 14.257812 20.890625 14.304688 20.851562 Z M 16.601562 20.820312 C 16.640625 20.886719 16.679688 20.953125 16.71875 21.015625 C 16.609375 21.011719 16.5 21.007812 16.390625 21.003906 C 16.457031 20.949219 16.527344 20.890625 16.601562 20.820312 Z M 18.167969 20.722656 C 18.214844 20.804688 18.242188 20.902344 18.277344 20.996094 C 18.179688 21.003906 18.082031 21.007812 17.988281 21.011719 C 18.054688 20.910156 18.117188 20.808594 18.167969 20.722656 Z M 19.328125 20.679688 C 19.34375 20.761719 19.367188 20.828125 19.390625 20.886719 C 19.304688 20.894531 19.21875 20.90625 19.132812 20.914062 C 19.203125 20.832031 19.269531 20.75 19.328125 20.679688 Z M 20.605469 20.472656 C 20.621094 20.5625 20.644531 20.644531 20.671875 20.71875 C 20.550781 20.734375 20.429688 20.75 20.308594 20.769531 C 20.421875 20.667969 20.523438 20.558594 20.605469 20.472656 Z M 28.242188 19.785156 C 28.132812 19.8125 28.023438 19.835938 27.914062 19.855469 C 27.980469 19.742188 28.039062 19.625 28.078125 19.519531 C 28.132812 19.632812 28.1875 19.71875 28.242188 19.785156 Z M 29.257812 19.511719 C 29.214844 19.527344 29.171875 19.539062 29.128906 19.550781 C 29.164062 19.503906 29.199219 19.457031 29.234375 19.40625 C 29.234375 19.449219 29.242188 19.484375 29.257812 19.511719 Z M 28.859375 18.96875 C 28.824219 18.835938 28.78125 18.726562 28.734375 18.640625 C 28.863281 18.660156 28.992188 18.683594 29.117188 18.707031 C 29.019531 18.796875 28.925781 18.898438 28.859375 18.96875 Z M 27.390625 19.113281 C 27.355469 19.015625 27.320312 18.933594 27.28125 18.863281 C 27.414062 18.75 27.558594 18.652344 27.804688 18.605469 C 27.652344 18.746094 27.511719 18.925781 27.390625 19.113281 Z M 24.21875 19.695312 C 24.140625 19.507812 24.148438 19.292969 24.082031 19.101562 C 24.234375 19.152344 24.382812 19.207031 24.539062 19.261719 C 24.417969 19.398438 24.308594 19.546875 24.21875 19.695312 Z M 17.1875 19.246094 C 17.394531 19.171875 17.597656 19.074219 17.804688 18.988281 C 18.03125 18.941406 18.246094 18.949219 18.457031 18.988281 C 18.035156 19.074219 17.609375 19.164062 17.1875 19.246094 Z M 31.773438 23.074219 C 30.871094 23.902344 29.601562 23.988281 28.480469 24.339844 C 27.207031 24.550781 25.960938 24.886719 24.691406 25.113281 C 22.949219 25.304688 21.191406 25.179688 19.453125 25.414062 C 17.726562 25.625 15.984375 26.136719 14.246094 25.699219 C 12.792969 25.238281 11.21875 25.054688 9.917969 24.207031 C 9.265625 23.730469 8.460938 22.84375 8.464844 22 C 8.460938 21.832031 8.539062 21.691406 8.632812 21.558594 C 8.761719 21.769531 8.980469 21.929688 9.304688 21.996094 C 9.929688 22.105469 10.566406 22.050781 11.199219 22.070312 C 11.597656 22.117188 12 22.109375 12.402344 22.125 C 12.761719 22.148438 13.121094 22.128906 13.472656 22.085938 C 14.191406 22.019531 14.914062 22.097656 15.636719 22.046875 C 16.816406 21.953125 17.996094 21.804688 19.179688 21.722656 C 20.242188 21.722656 21.304688 21.769531 22.367188 21.761719 C 23.558594 21.667969 24.753906 21.539062 25.921875 21.304688 C 26.5 21.160156 27.089844 21.070312 27.679688 20.96875 C 28.117188 20.90625 28.570312 20.914062 29 20.796875 C 29.753906 20.679688 30.5 20.519531 30.972656 20.113281 C 31.304688 20.273438 31.621094 20.460938 31.882812 20.71875 C 32.496094 21.386719 32.523438 22.496094 31.773438 23.074219 Z M 33.132812 15.734375 C 32.738281 15.664062 32.285156 15.667969 32.03125 16.03125 C 31.679688 16.453125 31.695312 17.011719 31.777344 17.523438 C 30.746094 17.746094 29.695312 17.441406 28.65625 17.464844 C 27.65625 17.484375 27.414062 17.726562 26.796875 18.449219 C 26.625 18.605469 26.394531 18.648438 26.171875 18.6875 C 25.71875 18.820312 25.242188 18.773438 24.824219 18.558594 C 23.984375 18.09375 22.996094 17.757812 22.054688 18.125 C 21.71875 18.246094 21.390625 18.511719 21.015625 18.367188 C 20.328125 18.042969 19.675781 17.574219 18.886719 17.550781 C 18.269531 17.476562 17.726562 17.785156 17.226562 18.105469 C 16.589844 18.355469 15.816406 18.40625 15.238281 17.992188 C 14.523438 17.519531 14.027344 17.1875 13.121094 17.355469 C 12.667969 17.429688 12.335938 17.785156 11.914062 17.933594 C 11.316406 18.171875 10.90625 17.996094 10.4375 17.597656 C 9.488281 16.609375 8.0625 17.230469 6.910156 17.421875 C 6.425781 17.4375 5.859375 17.625 5.421875 17.355469 C 5.78125 16.878906 6.382812 16.679688 6.835938 16.3125 C 7.183594 16.011719 7.464844 15.34375 7.035156 15 C 6.890625 14.902344 6.738281 14.824219 6.585938 14.746094 C 6.84375 14.679688 7.125 14.648438 7.386719 14.707031 C 7.554688 14.757812 7.710938 14.910156 7.894531 14.863281 C 7.949219 14.847656 7.996094 14.824219 8.039062 14.792969 C 8.078125 15.121094 8.167969 15.449219 8.386719 15.707031 C 8.839844 16.148438 9.425781 16.445312 10.023438 16.65625 C 11.183594 16.949219 12.375 17.144531 13.566406 17.25 C 14.59375 17.328125 15.625 17.277344 16.652344 17.273438 C 17.820312 17.261719 18.984375 17.351562 20.148438 17.433594 C 21.980469 17.617188 23.8125 17.359375 25.617188 17.0625 C 26.75 16.914062 27.898438 16.871094 29.019531 16.625 C 29.824219 16.421875 30.59375 16.089844 31.308594 15.667969 C 31.828125 15.304688 32.097656 14.597656 31.976562 13.980469 C 31.945312 13.839844 31.816406 13.476562 31.660156 13.261719 C 31.746094 13.257812 31.824219 13.257812 31.898438 13.273438 C 32.4375 13.324219 32.980469 13.25 33.519531 13.347656 C 33.246094 13.425781 32.992188 13.601562 32.933594 13.894531 C 32.792969 14.425781 33.960938 14.953125 34.078125 15.558594 C 33.847656 15.777344 33.433594 15.714844 33.132812 15.734375 Z M 15.136719 6.347656 C 15.480469 6.082031 15.753906 5.65625 16.179688 5.535156 C 16.675781 5.574219 16.585938 6.324219 16.335938 6.59375 C 16.15625 6.726562 15.96875 6.847656 15.820312 7.027344 C 15.625 7.171875 15.472656 7.476562 15.203125 7.457031 C 14.78125 7.292969 14.890625 6.625 15.136719 6.347656 Z M 19.171875 4.746094 C 20.980469 5.3125 19.996094 6.90625 19.542969 6.398438 C 19.375 6.160156 19.101562 6.050781 18.851562 5.917969 C 18.136719 5.917969 18.484375 4.414062 19.171875 4.746094 Z M 21.246094 7.457031 C 20.984375 7.078125 21.207031 6.589844 21.449219 6.257812 C 21.617188 6.066406 21.738281 5.648438 22.074219 5.761719 C 22.53125 6.121094 22.160156 6.773438 21.882812 7.132812 C 21.789062 7.375 21.5 7.746094 21.246094 7.457031 Z M 24.1875 7.203125 C 23.808594 6.683594 24.804688 5.359375 25.097656 6.25 C 25.15625 6.546875 25.070312 6.9375 24.785156 7.097656 C 24.652344 7.308594 24.34375 7.503906 24.1875 7.203125 Z M 17.3125 7.695312 C 17.324219 7.546875 17.371094 7.394531 17.460938 7.269531 C 17.519531 7.183594 17.621094 7.082031 17.734375 7.082031 C 18.007812 7.082031 18.070312 7.425781 18.050781 7.640625 C 18.035156 7.789062 17.988281 7.941406 17.902344 8.066406 C 17.84375 8.152344 17.742188 8.253906 17.628906 8.253906 C 17.351562 8.253906 17.292969 7.90625 17.3125 7.695312 Z M 25.34375 7.546875 C 25.359375 7.394531 25.40625 7.242188 25.492188 7.121094 C 25.550781 7.035156 25.652344 6.933594 25.765625 6.933594 C 26.039062 6.933594 26.101562 7.277344 26.082031 7.488281 C 26.066406 7.640625 26.019531 7.792969 25.933594 7.914062 C 25.875 8 25.773438 8.101562 25.660156 8.101562 C 25.382812 8.101562 25.324219 7.757812 25.34375 7.546875 Z M 25.34375 7.546875 " fill-opacity="1" fill-rule="nonzero"/></g><g clip-path="url(#fe0aa011a9)"><path fill="#000000" d="M 83.789062 3.671875 C 83.445312 3.738281 83.125 3.890625 82.964844 4.101562 C 82.738281 4.261719 82.644531 4.605469 82.503906 4.8125 C 82.40625 5.054688 82.351562 5.394531 82.253906 5.59375 C 82.191406 5.875 82.136719 6.207031 82.074219 6.445312 C 82.058594 6.734375 81.996094 7.027344 81.933594 7.226562 C 81.960938 7.496094 81.90625 7.746094 81.898438 7.9375 C 81.800781 8.207031 81.824219 8.640625 81.757812 8.894531 C 81.59375 10.15625 81.289062 12.3125 82.261719 13.164062 L 82.382812 13.117188 C 83.117188 13.019531 82.855469 12.039062 83.125 11.453125 C 83.3125 10.964844 83.363281 10.308594 83.550781 9.859375 C 83.636719 9.382812 83.730469 8.886719 83.835938 8.472656 C 83.910156 8.0625 84.066406 7.695312 84.117188 7.304688 C 84.199219 6.933594 84.375 6.621094 84.4375 6.273438 C 84.566406 5.96875 84.632812 5.558594 84.683594 5.210938 C 84.753906 4.804688 84.726562 4.363281 84.613281 4.136719 C 84.421875 3.902344 84.050781 3.792969 83.789062 3.671875 Z M 83.75 4.128906 C 83.855469 4.132812 83.960938 4.164062 84.027344 4.226562 C 84.242188 4.273438 84.359375 4.492188 84.304688 4.851562 C 84.261719 5.082031 84.230469 5.417969 84.164062 5.667969 C 84.089844 5.878906 83.988281 6.15625 83.914062 6.410156 C 83.898438 6.703125 83.71875 6.925781 83.703125 7.265625 C 83.605469 7.527344 83.542969 7.90625 83.453125 8.21875 C 83.398438 8.609375 83.25 8.980469 83.207031 9.425781 C 83.097656 9.871094 82.902344 10.296875 82.851562 10.84375 C 82.664062 11.363281 82.625 12.09375 82.429688 12.648438 L 82.347656 12.691406 C 82.6875 10.316406 82.988281 7.394531 83.199219 5.175781 C 83.1875 5.078125 83.035156 5.097656 82.933594 5.105469 C 82.828125 5.113281 82.765625 5.121094 82.878906 4.933594 C 82.996094 4.867188 83.050781 4.628906 83.160156 4.507812 C 83.183594 4.371094 83.367188 4.289062 83.476562 4.191406 C 83.539062 4.144531 83.644531 4.121094 83.75 4.128906 Z M 77.953125 11.644531 C 77.792969 11.660156 77.675781 11.726562 77.589844 11.761719 C 77.429688 11.671875 77.207031 11.757812 77.15625 11.835938 C 76.113281 13.1875 75.449219 14.800781 74.148438 16.019531 C 73.898438 16.367188 73.816406 16.289062 73.773438 16.066406 C 73.734375 15.839844 73.761719 15.476562 73.78125 15.25 C 73.605469 14.859375 73.886719 14.363281 73.992188 14.085938 C 74.164062 13.914062 74.1875 13.75 74.109375 13.644531 C 74.035156 13.542969 73.847656 13.480469 73.625 13.5 C 73.324219 13.585938 72.980469 13.433594 72.769531 13.570312 C 72.632812 13.738281 72.417969 13.886719 72.34375 14.074219 C 72.230469 14.203125 72.160156 14.4375 72.09375 14.570312 C 72.035156 14.726562 71.945312 14.921875 71.882812 15.03125 C 71.792969 15.171875 71.714844 15.382812 71.636719 15.488281 C 71.457031 15.710938 71.363281 16.050781 71.109375 16.160156 C 70.945312 16.296875 70.875 16.253906 70.824219 16.140625 C 70.777344 16.027344 70.769531 15.859375 70.777344 15.746094 C 70.820312 15.574219 70.800781 15.273438 70.847656 15.148438 C 70.875 15.003906 70.898438 14.796875 70.949219 14.726562 C 71.117188 14.453125 71.125 14.175781 71.011719 14.023438 C 70.894531 13.871094 70.648438 13.828125 70.339844 13.996094 C 69.769531 13.664062 69.617188 14.183594 69.339844 14.386719 C 69.109375 14.664062 68.925781 15.03125 68.667969 15.238281 C 68.46875 15.441406 68.222656 15.636719 67.996094 15.769531 C 67.78125 15.855469 67.554688 15.988281 67.394531 16.085938 C 67.203125 16.125 67.035156 16.246094 66.832031 16.226562 C 66.777344 16.25 66.65625 16.304688 66.550781 16.332031 C 66.449219 16.359375 66.375 16.375 66.390625 16.28125 C 66.382812 16.03125 66.347656 15.738281 66.246094 15.628906 C 66.222656 15.417969 66.027344 15.320312 65.925781 15.238281 C 65.847656 15.109375 65.628906 15.054688 65.496094 15.023438 C 65.304688 14.851562 65.007812 14.964844 64.75 14.953125 C 64.582031 14.96875 64.414062 15.0625 64.347656 15.132812 C 64.242188 15.246094 64.160156 15.449219 64.097656 15.5625 C 63.996094 15.6875 64.140625 15.878906 64.132812 15.957031 C 63.1875 16.308594 62.546875 16.996094 61.90625 17.613281 C 61.742188 17.777344 61.542969 17.953125 61.378906 18.074219 C 61.234375 18.234375 61.050781 18.414062 60.953125 18.574219 C 60.765625 18.707031 60.625 18.925781 60.492188 19.066406 C 60.257812 19.171875 60.132812 19.425781 59.757812 19.347656 C 59.519531 19.453125 59.210938 19.328125 59.132812 19.210938 C 58.921875 19 58.84375 18.683594 58.960938 18.339844 C 59.003906 18.089844 59.039062 17.777344 59.066406 17.554688 C 59.105469 17.375 59.199219 17.183594 59.171875 16.984375 C 59.226562 16.84375 59.273438 16.640625 59.3125 16.53125 C 59.394531 16.121094 59.265625 16.042969 59.101562 16.074219 C 58.933594 16.101562 58.71875 16.21875 58.589844 16.15625 C 58.265625 16.496094 58.117188 17.058594 57.90625 17.476562 C 57.753906 17.710938 57.664062 18.050781 57.519531 18.253906 C 57.390625 18.457031 57.238281 18.679688 57.097656 18.820312 C 56.953125 18.945312 56.835938 19.152344 56.707031 19.246094 C 56.539062 19.464844 56.355469 19.714844 56.140625 19.847656 C 56.027344 20 55.847656 20.140625 55.753906 20.273438 C 55.496094 20.21875 55.449219 20.4375 55.300781 20.449219 C 54.472656 20.726562 54.296875 20.183594 54.398438 19.550781 C 54.5 18.921875 54.886719 18.238281 55.234375 18.242188 C 55.347656 18.109375 55.574219 18.027344 55.699219 17.953125 C 55.835938 17.847656 56.097656 17.816406 56.226562 17.746094 C 56.394531 17.707031 56.667969 17.710938 56.789062 17.671875 C 56.953125 17.683594 57.039062 17.53125 57.046875 17.386719 C 57.054688 17.242188 56.980469 17.082031 56.863281 17.078125 C 55.257812 16.246094 53.804688 17.480469 53.132812 18.503906 C 53.03125 18.679688 52.859375 18.84375 52.777344 19 C 52.566406 19.1875 52.4375 19.503906 52.285156 19.707031 C 52.179688 19.886719 52.03125 20.066406 51.898438 20.167969 C 51.8125 20.292969 51.640625 20.390625 51.578125 20.488281 C 50.9375 21.039062 50.75 20.628906 50.734375 19.996094 C 50.71875 19.363281 50.894531 18.527344 51.035156 18.234375 C 51.089844 18.050781 51.042969 17.914062 50.957031 17.855469 C 50.875 17.800781 50.738281 17.800781 50.628906 17.859375 C 50.453125 17.878906 50.269531 17.863281 50.164062 17.96875 C 49.632812 19.078125 48.9375 19.992188 48.320312 21.058594 C 48.183594 21.234375 47.996094 21.414062 47.898438 21.589844 C 47.757812 21.691406 47.628906 21.863281 47.511719 21.941406 C 47.496094 22.121094 47.21875 22.105469 47.15625 22.1875 C 46.796875 22.359375 46.503906 21.957031 46.472656 21.628906 C 46.683594 21.25 46.96875 20.917969 47.140625 20.539062 C 47.738281 19.65625 48.136719 18.539062 48.558594 17.523438 C 48.664062 17.160156 48.9375 16.410156 49.011719 15.738281 C 49.085938 15.066406 48.949219 14.453125 48.261719 14.382812 C 46.890625 14.699219 46.847656 16.433594 46.199219 17.402344 C 45.789062 18.441406 45.601562 19.683594 45.808594 20.996094 C 45.492188 21.777344 44.824219 22.355469 44.046875 22.753906 C 43.570312 22.898438 43.195312 22.652344 43.144531 22.304688 C 43.433594 21.9375 43.789062 21.625 44.0625 21.285156 C 44.4375 20.652344 44.875 20.050781 45.125 19.332031 C 45.488281 18.605469 45.09375 17.6875 44.480469 17.574219 C 43.933594 17.308594 43.242188 17.515625 42.84375 17.753906 C 42.636719 17.800781 41.554688 18.839844 41.464844 20.050781 C 41.476562 20.253906 41.347656 20.816406 41.367188 21.121094 C 41.359375 22.191406 41.554688 22.457031 41.601562 22.5625 C 41.652344 22.664062 41.625 22.753906 41.40625 22.835938 C 41.246094 22.894531 41.082031 23.054688 40.878906 23.117188 L 40.824219 23.167969 C 40.0625 22.683594 40.390625 21.574219 40.371094 21.058594 C 40.453125 20.480469 40.421875 20.617188 40.523438 20.402344 C 40.691406 20.039062 40.640625 20.074219 40.785156 19.769531 C 40.972656 19.394531 41.453125 17.933594 41.320312 17.96875 C 41.582031 17.46875 41.605469 16.714844 41.789062 16.175781 C 41.890625 15.625 41.957031 15.078125 41.964844 14.648438 C 41.828125 14.226562 40.878906 13.867188 40.636719 14.046875 C 40.34375 14.242188 40.152344 14.582031 40.027344 14.90625 C 39.957031 15.257812 39.34375 15.878906 39.324219 16.242188 C 39.242188 16.574219 38.941406 17.214844 38.882812 17.53125 C 38.785156 17.835938 38.828125 18.472656 38.75 18.75 C 38.785156 19.117188 38.722656 19.59375 38.753906 19.910156 C 38.679688 19.941406 38.714844 20.109375 38.730469 20.257812 C 38.75 20.410156 38.769531 20.53125 38.628906 20.496094 C 38.332031 20.414062 37.945312 20.484375 37.734375 20.53125 C 37.539062 20.628906 37.253906 20.6875 37.097656 20.78125 C 36.898438 20.839844 36.710938 20.964844 36.601562 21.066406 C 35.996094 21.242188 35.160156 22.21875 34.917969 23.054688 C 34.675781 23.890625 35.136719 25.097656 36.007812 25.402344 C 36.15625 25.382812 36.464844 25.441406 36.511719 25.363281 C 37.078125 25.195312 37.453125 24.820312 37.925781 24.585938 C 38.339844 24.3125 38.648438 23.917969 39.011719 23.632812 C 39.113281 24.144531 39.617188 24.207031 39.992188 24.410156 C 40.972656 24.359375 41.203125 24.117188 41.441406 23.875 C 41.757812 23.65625 42.019531 23.355469 42.21875 23.0625 C 42.410156 23.121094 42.78125 23.441406 43.089844 23.523438 C 43.382812 23.6875 43.875 23.691406 44.195312 23.59375 C 44.496094 23.53125 44.734375 23.355469 44.976562 23.277344 C 45.171875 23.175781 45.34375 22.996094 45.476562 22.882812 C 45.570312 22.730469 45.699219 22.554688 45.796875 22.457031 C 45.835938 22.300781 45.890625 22.273438 45.949219 22.304688 C 46.011719 22.335938 46.054688 22.417969 46.054688 22.519531 C 46.125 22.691406 46.28125 22.859375 46.417969 22.921875 C 46.675781 23.039062 47.289062 23.019531 47.457031 22.882812 C 47.667969 22.757812 47.890625 22.585938 48.027344 22.421875 C 48.15625 22.257812 48.320312 22.078125 48.449219 21.960938 C 48.726562 21.632812 48.980469 21.265625 49.179688 20.898438 C 49.121094 21.328125 49.234375 21.777344 49.382812 22.0625 C 49.675781 22.667969 50.707031 22.4375 51.03125 22.066406 C 51.4375 21.761719 51.710938 21.292969 52.023438 20.929688 C 52.128906 20.734375 52.328125 20.59375 52.398438 20.402344 C 52.441406 20.714844 52.570312 20.972656 52.707031 21.144531 C 52.964844 21.492188 53.296875 21.816406 53.886719 21.785156 C 54.425781 21.847656 54.855469 21.691406 55.167969 21.464844 C 55.4375 21.269531 55.707031 21.039062 55.914062 20.824219 C 56.109375 20.644531 56.28125 20.398438 56.480469 20.257812 C 56.628906 20.070312 56.757812 19.824219 56.960938 19.730469 C 57.046875 20.019531 57.0625 20.425781 57.3125 20.507812 C 57.507812 20.664062 57.796875 20.78125 58.058594 20.828125 C 58.378906 20.855469 58.621094 20.746094 58.808594 20.6875 C 59.148438 20.589844 59.433594 20.394531 59.730469 20.296875 C 60.023438 20.179688 60.21875 19.917969 60.472656 19.800781 C 60.691406 19.703125 60.734375 19.371094 60.902344 19.265625 C 60.980469 19.148438 61.132812 19.039062 61.1875 18.945312 C 61.402344 18.785156 61.617188 18.46875 61.839844 18.453125 C 61.679688 18.789062 61.570312 19.625 61.945312 19.761719 C 62.210938 20.191406 62.953125 20.148438 63.480469 20.011719 C 63.945312 19.804688 64.503906 19.648438 64.792969 19.300781 C 65.121094 18.996094 65.476562 18.695312 65.714844 18.34375 C 65.992188 18.125 65.949219 17.5625 66.480469 17.636719 C 66.921875 17.675781 67.203125 17.511719 67.511719 17.460938 C 67.8125 17.425781 67.996094 17.210938 68.257812 17.175781 C 68.390625 16.941406 68.429688 16.996094 68.464844 17.140625 C 68.496094 17.285156 68.511719 17.511719 68.558594 17.597656 C 68.671875 17.847656 68.808594 18.125 68.984375 18.273438 C 69.132812 18.464844 69.34375 18.652344 69.589844 18.703125 C 69.808594 18.792969 70.207031 18.792969 70.378906 18.703125 C 70.722656 18.632812 71.085938 18.535156 71.300781 18.378906 C 71.460938 18.273438 71.671875 18.160156 71.796875 18.0625 C 71.894531 17.976562 71.984375 17.820312 72.078125 17.777344 C 72.175781 17.671875 72.289062 17.503906 72.367188 17.421875 C 72.515625 17.152344 72.613281 17.226562 72.726562 17.386719 C 72.835938 17.542969 72.941406 17.789062 73.054688 17.847656 C 73.265625 18.152344 74.117188 18.183594 74.414062 17.953125 C 74.769531 17.753906 75.148438 17.535156 75.371094 17.242188 C 75.628906 17.011719 75.8125 16.671875 75.976562 16.390625 C 76.164062 16.140625 76.386719 15.886719 76.503906 15.609375 C 76.675781 15.363281 76.886719 15.125 77.035156 14.902344 C 77.109375 14.796875 77.1875 14.609375 77.28125 14.496094 C 77.371094 14.386719 77.457031 14.355469 77.578125 14.582031 C 77.765625 14.785156 77.992188 14.992188 78.144531 15.1875 C 78.238281 15.394531 78.425781 15.5625 78.496094 15.75 C 78.566406 15.929688 78.554688 16.289062 78.429688 16.335938 C 78.363281 16.476562 78.234375 16.617188 78.113281 16.65625 C 78.070312 16.78125 77.882812 16.832031 77.796875 16.867188 C 77.585938 17.011719 77.265625 16.964844 77.0625 16.902344 C 76.773438 16.882812 76.472656 16.917969 76.378906 17.046875 C 76.257812 17.078125 76.222656 17.191406 76.246094 17.277344 C 76.269531 17.363281 76.355469 17.445312 76.457031 17.425781 C 77.351562 18.058594 78.710938 17.171875 79.402344 16.785156 C 79.710938 16.546875 79.972656 16.21875 80.117188 15.855469 C 80.261719 15.40625 80.050781 14.992188 79.902344 14.78125 C 79.757812 14.570312 79.617188 14.304688 79.4375 14.175781 C 79.3125 13.984375 79.140625 13.789062 79.015625 13.640625 C 78.769531 13.570312 78.835938 13.144531 78.734375 12.972656 C 78.78125 12.75 78.878906 12.53125 78.878906 12.304688 C 78.910156 12.230469 78.960938 12.097656 78.96875 11.988281 C 78.976562 11.878906 78.925781 11.777344 78.792969 11.796875 C 78.53125 11.789062 78.265625 11.734375 78.125 11.652344 C 78.0625 11.644531 78.003906 11.640625 77.953125 11.644531 Z M 78.398438 12.210938 C 78.457031 12.214844 78.496094 12.273438 78.460938 12.445312 C 78.386719 12.507812 78.371094 12.734375 78.320312 12.867188 C 78.261719 13.113281 78.441406 13.226562 78.390625 13.507812 C 78.472656 13.652344 78.558594 13.902344 78.714844 14.019531 C 78.832031 14.125 78.957031 14.320312 79.101562 14.441406 C 79.160156 14.632812 79.359375 14.773438 79.453125 14.972656 C 79.554688 15.167969 79.75 15.4375 79.628906 15.8125 C 79.539062 16.105469 79.3125 16.328125 79.070312 16.511719 C 79.808594 14.785156 77.269531 14.292969 78.203125 12.488281 C 78.148438 12.378906 78.234375 12.261719 78.332031 12.226562 C 78.355469 12.214844 78.378906 12.210938 78.398438 12.210938 Z M 59.210938 13.484375 C 58.703125 13.46875 58.355469 13.824219 58.230469 14.242188 C 58.058594 14.800781 58.277344 15.5 58.980469 15.582031 C 59.015625 15.578125 59.078125 15.585938 59.128906 15.582031 C 59.175781 15.582031 59.21875 15.550781 59.203125 15.523438 C 59.421875 15.5 59.492188 15.296875 59.621094 15.226562 C 59.8125 15.199219 59.890625 14.988281 59.980469 14.902344 C 60.132812 14.773438 60.285156 14.335938 60.125 14.140625 C 60.039062 13.945312 59.957031 13.679688 59.765625 13.640625 C 59.5625 13.539062 59.378906 13.492188 59.210938 13.484375 Z M 76.851562 13.722656 C 76.882812 13.707031 76.914062 13.726562 76.945312 13.765625 C 77.011719 13.839844 77.042969 13.964844 76.941406 14.070312 C 76.84375 14.195312 76.757812 14.429688 76.625 14.566406 C 76.550781 14.753906 76.371094 14.933594 76.269531 15.136719 C 76.152344 15.265625 76.089844 15.542969 75.917969 15.664062 C 75.828125 15.847656 75.636719 16.027344 75.492188 16.199219 C 75.34375 16.371094 75.109375 16.546875 74.929688 16.726562 C 74.683594 16.894531 74.402344 17.097656 74.046875 17.1875 C 74.066406 17.210938 74.042969 17.21875 74 17.222656 C 73.960938 17.226562 73.914062 17.222656 73.882812 17.222656 C 73.824219 17.113281 73.585938 16.992188 73.640625 16.816406 C 73.820312 16.824219 74.105469 17.023438 74.304688 16.855469 C 74.765625 16.714844 75.019531 16.289062 75.335938 15.96875 C 75.414062 15.808594 75.5625 15.617188 75.65625 15.433594 C 75.761719 15.203125 75.945312 14.964844 76.082031 14.722656 C 76.316406 14.480469 76.523438 14.132812 76.789062 13.875 C 76.796875 13.78125 76.824219 13.734375 76.851562 13.722656 Z M 73.425781 14.152344 C 73.460938 14.171875 73.457031 14.230469 73.441406 14.304688 C 73.40625 14.453125 73.289062 14.65625 73.226562 14.746094 C 73.039062 14.984375 72.917969 15.375 72.695312 15.628906 C 72.519531 16.003906 72.300781 16.414062 72.058594 16.765625 C 71.6875 17.113281 71.226562 17.429688 70.613281 17.578125 C 70.609375 17.613281 70.546875 17.617188 70.464844 17.613281 C 70.382812 17.609375 70.292969 17.601562 70.234375 17.609375 C 69.195312 17.113281 69.761719 15.382812 69.996094 14.652344 C 70.019531 14.476562 70.066406 14.332031 70.339844 14.445312 C 70.4375 14.398438 70.503906 14.402344 70.539062 14.445312 C 70.574219 14.492188 70.566406 14.5625 70.503906 14.675781 C 70.484375 14.84375 70.382812 15.039062 70.394531 15.285156 C 70.492188 15.4375 70.300781 15.664062 70.324219 15.886719 C 70.339844 15.945312 70.425781 16.195312 70.398438 16.234375 C 70.433594 16.347656 70.503906 16.550781 70.574219 16.675781 C 70.683594 16.777344 70.8125 16.980469 71.082031 16.964844 C 71.285156 16.90625 71.492188 16.75 71.691406 16.644531 C 71.855469 16.476562 72.035156 16.226562 72.1875 16 C 72.359375 15.75 72.503906 15.398438 72.683594 15.113281 C 72.847656 14.859375 72.988281 14.503906 73.179688 14.230469 C 73.3125 14.152344 73.386719 14.132812 73.425781 14.152344 Z M 59.4375 14.269531 C 59.773438 14.417969 59.933594 14.476562 59.539062 14.8125 C 59.550781 14.84375 59.519531 14.847656 59.464844 14.847656 C 59.40625 14.847656 59.339844 14.839844 59.300781 14.84375 C 59.167969 14.792969 59.105469 14.644531 59.117188 14.503906 C 59.132812 14.359375 59.214844 14.25 59.4375 14.269531 Z M 81.925781 14.054688 C 81.433594 14.109375 81.140625 14.527344 81.054688 15.007812 C 80.941406 15.648438 81.191406 16.433594 81.769531 16.640625 L 81.855469 16.589844 C 82.054688 16.488281 82.390625 16.476562 82.488281 16.316406 C 82.625 16.195312 82.800781 16.054688 82.84375 15.886719 C 83 15.808594 83.027344 15.546875 83.089844 15.425781 C 83.179688 15.113281 83.042969 14.71875 82.949219 14.527344 C 82.808594 14.390625 82.683594 14.164062 82.480469 14.132812 C 82.273438 14.058594 82.089844 14.035156 81.925781 14.054688 Z M 51.332031 15.171875 C 51.015625 15.164062 50.726562 15.324219 50.546875 15.550781 C 50.261719 15.914062 50.25 16.46875 50.804688 16.785156 C 50.84375 16.78125 50.917969 16.789062 50.972656 16.789062 C 51.027344 16.789062 51.082031 16.761719 51.066406 16.730469 C 51.253906 16.71875 51.6875 16.738281 51.742188 16.53125 C 51.921875 16.441406 52.011719 16.207031 52.0625 16.03125 C 52.074219 15.761719 52.082031 15.417969 51.910156 15.378906 C 51.71875 15.234375 51.519531 15.171875 51.332031 15.171875 Z M 82.359375 14.605469 C 82.507812 14.636719 82.640625 14.8125 82.710938 15.210938 C 82.707031 15.367188 82.621094 15.535156 82.539062 15.660156 C 82.40625 15.738281 82.347656 15.976562 82.121094 16.011719 L 82.066406 16.058594 C 81.570312 15.820312 81.667969 15.214844 81.921875 14.863281 C 82.050781 14.6875 82.210938 14.574219 82.359375 14.605469 Z M 65.390625 15.535156 C 65.535156 15.539062 65.613281 15.644531 65.671875 15.789062 C 65.753906 15.976562 65.78125 16.238281 65.832031 16.425781 L 65.824219 16.453125 C 65.644531 16.171875 65.21875 15.988281 65.222656 15.566406 C 65.285156 15.542969 65.34375 15.535156 65.390625 15.535156 Z M 51.3125 15.65625 C 51.363281 15.652344 51.417969 15.683594 51.476562 15.757812 C 51.6875 15.632812 51.714844 15.792969 51.660156 15.992188 C 51.605469 16.1875 51.472656 16.390625 51.308594 16.335938 L 51.246094 16.382812 C 51.097656 16.34375 51.074219 16.085938 51.132812 15.886719 C 51.171875 15.761719 51.234375 15.664062 51.3125 15.65625 Z M 41.546875 15.175781 C 41.554688 15.171875 41.566406 15.175781 41.578125 15.179688 C 41.621094 15.195312 41.644531 15.246094 41.585938 15.351562 C 41.511719 15.472656 41.503906 15.773438 41.445312 15.957031 C 41.4375 16.160156 41.359375 16.394531 41.304688 16.59375 C 41.265625 16.804688 41.261719 17.144531 41.164062 17.335938 C 41.125 17.472656 41.011719 17.644531 40.984375 17.835938 C 40.945312 18.035156 40.476562 19.875 40.035156 20.105469 L 40.011719 19.09375 C 40.113281 18.738281 40.105469 17.664062 40.238281 17.167969 C 40.507812 16.179688 40.753906 15.863281 41.085938 15.316406 C 41.386719 14.917969 41.519531 15.179688 41.546875 15.175781 Z M 48.066406 15.804688 C 48.082031 15.808594 48.097656 15.820312 48.113281 15.832031 C 48.171875 15.894531 48.195312 16.023438 48.109375 16.199219 C 48.132812 16.375 48.039062 16.546875 48.035156 16.738281 C 48.003906 16.90625 47.949219 17.148438 47.894531 17.335938 C 47.933594 17.550781 47.742188 17.640625 47.71875 17.835938 C 47.644531 17.933594 47.589844 18.148438 47.472656 18.253906 C 47.386719 18.378906 47.300781 18.609375 47.191406 18.75 C 47.097656 18.933594 46.921875 19.132812 46.867188 19.394531 C 46.730469 19.617188 46.660156 19.976562 46.484375 20.203125 L 46.472656 20.25 C 46.6875 18.550781 47.222656 17.179688 47.921875 15.964844 C 47.964844 15.839844 48.015625 15.792969 48.066406 15.804688 Z M 64.480469 16.417969 C 64.542969 16.417969 64.605469 16.421875 64.671875 16.429688 C 64.710938 16.605469 64.933594 16.695312 65.097656 16.785156 C 65.242188 16.839844 65.441406 16.949219 65.703125 16.929688 C 65.875 16.953125 65.84375 17.03125 65.789062 17.148438 C 65.730469 17.265625 65.636719 17.414062 65.65625 17.519531 C 65.589844 17.628906 65.542969 17.84375 65.410156 17.933594 C 65.316406 18.0625 65.15625 18.222656 64.988281 18.324219 C 64.84375 18.425781 64.652344 18.574219 64.425781 18.640625 C 64.230469 18.714844 63.941406 18.796875 63.679688 18.851562 C 63.699219 18.875 63.675781 18.882812 63.636719 18.886719 C 63.59375 18.890625 63.546875 18.890625 63.515625 18.886719 C 63.113281 18.421875 63.152344 17.777344 63.417969 17.25 C 63.648438 16.789062 64.039062 16.441406 64.480469 16.417969 Z M 58.804688 16.714844 C 58.800781 16.847656 58.675781 16.976562 58.71875 17.203125 C 58.65625 17.335938 58.632812 17.609375 58.578125 17.796875 C 58.597656 18.015625 58.503906 18.226562 58.472656 18.4375 C 58.453125 18.617188 58.511719 18.777344 58.472656 18.933594 C 58.539062 19.042969 58.585938 19.28125 58.648438 19.4375 C 58.667969 19.503906 58.78125 19.574219 58.875 19.632812 C 58.96875 19.695312 59.046875 19.730469 59.003906 19.78125 C 59.019531 19.816406 58.988281 19.816406 58.945312 19.8125 C 58.90625 19.808594 58.859375 19.828125 58.871094 19.835938 C 58.21875 19.625 58.15625 18.953125 58.273438 18.285156 C 58.390625 17.617188 58.683594 16.953125 58.804688 16.714844 Z M 64.625 17.128906 C 64.441406 17.101562 64.222656 17.203125 64.054688 17.363281 C 63.71875 17.675781 63.578125 18.21875 64.285156 18.277344 L 64.34375 18.226562 C 64.574219 18.25 64.71875 18.109375 64.792969 18.023438 C 64.882812 17.957031 64.949219 17.785156 64.972656 17.699219 C 64.953125 17.324219 64.808594 17.160156 64.625 17.128906 Z M 55.726562 17.238281 C 55.773438 17.238281 55.816406 17.238281 55.867188 17.246094 C 55.945312 17.238281 56.101562 17.273438 56.179688 17.3125 C 56.257812 17.347656 56.257812 17.363281 56.007812 17.363281 C 55.902344 17.433594 55.671875 17.488281 55.507812 17.542969 C 55.375 17.628906 55.1875 17.765625 55.015625 17.859375 C 54.828125 17.910156 54.742188 18.160156 54.550781 18.25 C 54.457031 18.371094 54.355469 18.585938 54.230469 18.714844 C 54.132812 18.867188 54.082031 19.167969 54.015625 19.394531 C 53.941406 19.617188 53.890625 20.109375 53.945312 20.394531 C 53.914062 20.578125 54.074219 20.699219 54.222656 20.785156 C 54.375 20.871094 54.519531 20.910156 54.476562 20.988281 C 54.492188 21.015625 54.460938 21.015625 54.40625 21.015625 C 54.347656 21.019531 54.28125 21.011719 54.242188 21.015625 C 53.566406 20.816406 53.429688 20.152344 53.550781 19.476562 C 53.667969 18.804688 54.042969 18.152344 54.425781 17.992188 C 54.574219 17.871094 54.796875 17.722656 54.988281 17.601562 C 55.253906 17.519531 55.421875 17.257812 55.726562 17.238281 Z M 44.265625 18.0625 C 44.394531 18.058594 44.472656 18.207031 44.574219 18.273438 C 44.554688 18.390625 44.71875 18.535156 44.605469 18.679688 C 44.628906 18.847656 44.503906 18.992188 44.464844 19.144531 C 44.394531 19.261719 44.347656 19.5 44.253906 19.636719 C 44.15625 19.75 43.777344 20.875 43.191406 21.398438 C 43.460938 20.582031 43.84375 19.945312 43.871094 19.71875 C 43.910156 19.542969 44.269531 18.820312 44.054688 18.746094 C 43.777344 18.664062 43.496094 18.933594 43.367188 19.140625 C 43.191406 19.324219 43.050781 19.632812 42.941406 19.925781 C 42.78125 20.160156 42.742188 20.597656 42.660156 20.953125 C 42.585938 21.300781 42.726562 21.875 42.316406 22.042969 L 42.296875 22.09375 C 41.8125 20.226562 42.421875 18.019531 44.265625 18.0625 Z M 50.527344 18.3125 C 50.59375 18.316406 50.578125 18.382812 50.5625 18.476562 C 50.546875 18.574219 50.515625 18.6875 50.511719 18.757812 C 50.449219 18.921875 50.351562 19.144531 50.335938 19.394531 C 50.367188 19.640625 50.269531 19.855469 50.300781 20.144531 C 50.269531 20.296875 50.339844 20.472656 50.40625 20.574219 C 50.414062 20.742188 50.46875 20.972656 50.625 21.039062 C 50.585938 21.148438 50.746094 21.164062 50.871094 21.179688 C 51 21.199219 51.09375 21.199219 50.941406 21.335938 C 50.785156 21.453125 50.589844 21.617188 50.308594 21.65625 C 50.328125 21.679688 50.304688 21.6875 50.261719 21.6875 C 50.222656 21.691406 50.175781 21.691406 50.140625 21.6875 C 49.414062 20.988281 50.144531 19.609375 50.292969 18.867188 C 50.394531 18.75 50.335938 18.386719 50.527344 18.3125 Z M 38.707031 20.90625 C 38.984375 20.925781 39.1875 21.042969 39.246094 21.292969 C 39.210938 21.402344 39.355469 21.667969 39.242188 21.746094 C 39.171875 21.851562 39.199219 22.183594 39.101562 22.304688 C 39.023438 22.421875 38.722656 22.902344 38.613281 23.042969 C 38.484375 23.121094 38.390625 23.335938 38.226562 23.429688 C 38.132812 23.570312 37.953125 23.722656 37.769531 23.816406 C 37.558594 23.917969 37.160156 24.144531 36.992188 24.101562 C 37.007812 24.128906 36.980469 24.136719 36.929688 24.136719 C 36.882812 24.140625 36.820312 24.132812 36.785156 24.136719 C 36.214844 23.996094 35.695312 23.277344 35.859375 22.773438 C 36.019531 22.269531 36.769531 21.523438 37.039062 21.371094 C 37.15625 21.277344 37.339844 21.152344 37.496094 21.054688 C 37.800781 21.046875 38.023438 20.878906 38.410156 20.914062 C 38.515625 20.902344 38.617188 20.898438 38.707031 20.90625 Z M 38.1875 21.367188 C 38.15625 21.371094 38.125 21.375 38.089844 21.382812 C 37.894531 21.421875 37.601562 21.597656 37.445312 21.800781 C 37.289062 22.007812 37.378906 22.75 37.703125 22.921875 C 37.761719 22.914062 37.855469 22.921875 37.9375 22.925781 C 38.019531 22.925781 38.101562 22.914062 38.109375 22.875 C 38.25 22.835938 38.324219 22.679688 38.417969 22.636719 C 38.597656 22.558594 38.585938 21.839844 38.554688 21.65625 C 38.53125 21.496094 38.40625 21.355469 38.1875 21.367188 Z M 38.1875 21.367188 " fill-opacity="1" fill-rule="nonzero"/></g></svg>